Patient4_TMGait_0pt4_03_left_24_GRF.mot
version=1
nRows=45
nColumns=19
inDegrees=no
endheader
time	F1x	F1y	F1z	M1x	M1y	M1z	F2x	F2y	F2z	M2x	M2y	M2z	EC1x	EC1y	EC1z	EC2x	EC2y	EC2z
31.47	0.85124	8.3749	1.7138	-3.3221	0.44878	4.6264	-47.3324	758.3659	-62.0123	280.5423	86.4478	827.0119	-0.0592	0.0182	-0.0073	-0.0462	0.0165	0.9585
31.4839	0.48688	5.9141	1.209	-2.3401	0.17473	3.5016	-42.7901	751.0418	-62.7224	277.2433	84.9725	813.912	-0.0592	0.0182	-0.0073	-0.0462	0.0165	0.9585
31.4977	0.20111	3.8517	0.78956	-1.5151	-0.059315	2.5551	-38.0282	741.7043	-62.6509	273.3218	82.598	798.4679	-0.0592	0.0182	-0.0073	-0.0462	0.0165	0.9585
31.5116	-0.0025241	2.3072	0.48062	-0.89544	-0.2448	1.8454	-33.2191	731.4134	-61.846	269.2179	79.4595	782.0006	-0.0592	0.0182	-0.0073	-0.0462	0.0165	0.9585
31.5254	-0.14381	1.2613	0.27602	-0.47544	-0.38228	1.3631	-28.4321	721.631	-60.51	265.4806	75.8044	766.1189	-0.0592	0.0182	-0.0073	-0.0462	0.0165	0.9585
31.5393	-0.23697	0.61953	0.15942	-0.22023	-0.47735	1.0546	-23.6911	713.8334	-58.895	262.6378	71.9072	752.3791	-0.0592	0.0182	-0.0073	-0.0462	0.0165	0.9585
31.5531	-0.3076	0.26309	0.11353	-0.083404	-0.54585	0.85812	-18.9949	709.2023	-57.2433	261.0939	68.0139	741.9887	-0.0592	0.0182	-0.0073	-0.0462	0.0165	0.9585
31.567	-0.37017	0.066583	0.11676	-0.013322	-0.59883	0.69487	-14.3315	708.4475	-55.7491	261.0694	64.3106	735.6657	-0.0592	0.0182	-0.0073	-0.0462	0.0165	0.9585
31.5809	-0.4419	-0.10457	0.15293	0.043039	-0.64826	0.46549	-9.7128	711.7004	-54.558	262.5659	60.9387	733.5518	-0.0592	0.0182	-0.0073	-0.0462	0.0165	0.9585
31.5947	-0.53286	-0.38248	0.21119	0.13403	-0.70678	0.063008	-5.1829	718.4937	-53.748	265.3669	57.9833	735.1845	-0.0592	0.0182	-0.0073	-0.0462	0.0165	0.9585
31.6086	-0.63391	-0.89145	0.27941	0.30178	-0.77441	-0.62513	-0.81902	727.8772	-53.355	269.0786	55.4989	739.6302	-0.0592	0.0182	-0.0073	-0.0462	0.0165	0.9585
31.6224	-0.7309	-1.7344	0.34819	0.58291	-0.84835	-1.6903	3.2919	738.5687	-53.3633	273.1877	53.4987	745.6448	-0.0592	0.0182	-0.0073	-0.0462	0.0165	0.9585
31.6363	-0.79596	-2.9664	0.39481	0.99899	-0.90047	-3.1862	7.0486	749.1529	-53.736	277.1361	51.984	751.8705	-0.0592	0.0182	-0.0073	-0.0462	0.0165	0.9585
31.6501	-0.78179	-4.5604	0.40459	1.5422	-0.89174	-5.0816	10.359	758.2704	-54.4081	280.3934	50.9314	757.0117	-0.0592	0.0182	-0.0073	-0.0462	0.0165	0.9585
31.664	-0.61273	-6.367	0.35125	2.1603	-0.76185	-7.2094	13.1618	764.773	-55.3296	282.5151	50.3277	759.982	-0.0592	0.0182	-0.0073	-0.0462	0.0165	0.9585
31.6779	-0.1954	-8.0583	0.20737	2.7382	-0.44451	-9.1991	15.4483	767.9008	-56.4666	283.212	50.1563	760.059	-0.0592	0.0182	-0.0073	-0.0462	0.0165	0.9585
31.6917	0.57853	-9.0479	-0.061865	3.0736	0.13731	-10.3825	17.2714	767.427	-57.7983	282.4074	50.3856	757.014	-0.0592	0.0182	-0.0073	-0.0462	0.0165	0.9585
31.7056	1.8104	-8.4465	-0.49699	2.8583	1.0635	-9.7338	18.7091	763.645	-59.2986	280.2322	50.9598	751.1045	-0.0592	0.0182	-0.0073	-0.0462	0.0165	0.9585
31.7194	3.5648	-5.0428	-1.1193	1.6723	2.381	-5.852	19.8394	757.2286	-60.9197	276.9704	51.801	742.9527	-0.0592	0.0182	-0.0073	-0.0462	0.0165	0.9585
31.7333	5.822	2.6808	-1.9417	-1.007	4.0904	3.0105	20.7419	749.0119	-62.5774	272.9723	52.7965	733.3322	-0.0592	0.0182	-0.0073	-0.0462	0.0165	0.9585
31.7471	8.4094	16.4155	-2.9142	-5.7567	6.0712	18.7978	21.4695	739.7196	-64.1477	268.5498	53.8032	722.9121	-0.0592	0.0182	-0.0073	-0.0462	0.0165	0.9585
31.761	10.9315	37.7275	-3.9232	-13.1086	8.0481	43.3276	22.0436	729.7013	-65.4906	263.8751	54.6753	712.0057	-0.0592	0.0182	-0.0073	-0.0462	0.0165	0.9585
31.7749	12.6618	67.5307	-4.7354	-23.3656	9.4963	77.6948	22.4722	718.7709	-66.4344	258.9175	55.2432	700.4233	-0.0592	0.0182	-0.0073	-0.0462	0.0165	0.9585
31.7887	12.5448	105.4144	-4.982	-36.3708	9.6321	121.4767	22.7274	706.1684	-66.7879	253.4272	55.3348	687.4323	-0.0592	0.0182	-0.0073	-0.0462	0.0165	0.9585
31.8026	9.7089	149.1709	-4.2669	-51.3442	7.708	172.1789	22.7456	690.7338	-66.3557	247.0069	54.7879	671.9108	-0.0592	0.0182	-0.0073	-0.0462	0.0165	0.9585
31.8164	4.3698	194.4446	-2.1607	-66.7617	3.3229	224.7724	22.4784	671.3296	-65.0088	239.2642	53.5035	652.7579	-0.0592	0.0182	-0.0073	-0.0462	0.0165	0.9585
31.8303	-1.6802	235.4555	1.5498	-80.6293	-3.1184	272.4231	21.9392	647.2999	-62.7404	229.9777	51.4805	629.311	-0.0592	0.0182	-0.0073	-0.0462	0.0165	0.9585
31.8441	-6.7142	267.4616	6.2568	-91.3589	-10.2856	309.4047	21.2057	618.8222	-59.6996	219.223	48.8411	601.6718	-0.0592	0.0182	-0.0073	-0.0462	0.0165	0.9585
31.858	-9.9888	289.1393	11.1181	-98.5518	-16.942	334.059	20.4394	586.9545	-56.1847	207.3851	45.8097	570.772	-0.0592	0.0182	-0.0073	-0.0462	0.0165	0.9585
31.8719	-11.7445	302.7515	15.3987	-103.0317	-22.3392	349.0746	19.8271	553.3038	-52.5233	195.0353	42.6242	538.088	-0.0592	0.0182	-0.0073	-0.0462	0.0165	0.9585
31.8857	-12.6298	312.3824	18.7629	-106.2228	-26.3343	359.2895	19.5188	519.4948	-48.9517	182.7472	39.4473	505.147	-0.0592	0.0182	-0.0073	-0.0462	0.0165	0.9585
31.8996	-13.256	322.1021	21.1257	-109.5221	-29.072	369.4374	19.6078	486.7511	-45.5082	170.9499	36.2755	473.1236	-0.0592	0.0182	-0.0073	-0.0462	0.0165	0.9585
31.9134	-14.0423	334.9688	22.719	-113.9485	-30.9745	383.0514	20.1251	455.6258	-42.097	159.8311	32.9994	442.5661	-0.0592	0.0182	-0.0073	-0.0462	0.0165	0.9585
31.9273	-15.1334	352.7892	23.8814	-120.0767	-32.5001	402.1871	21.0031	425.9376	-38.5942	149.3114	29.5085	413.3273	-0.0592	0.0182	-0.0073	-0.0462	0.0165	0.9585
31.9411	-16.5063	376.218	25.0571	-128.0743	-34.1439	427.5874	22.0621	396.8854	-34.9546	139.0859	25.8052	384.6819	-0.0592	0.0182	-0.0073	-0.0462	0.0165	0.9585
31.955	-18.0128	404.8562	26.6379	-137.752	-36.2971	458.7742	23.0454	367.3372	-31.2058	128.7298	21.9935	355.5866	-0.0592	0.0182	-0.0073	-0.0462	0.0165	0.9585
31.9689	-19.5382	437.5418	29.0376	-148.6661	-39.3633	494.4105	23.6383	336.211	-27.437	117.8354	18.2569	325.0516	-0.0592	0.0182	-0.0073	-0.0462	0.0165	0.9585
31.9827	-21.0356	473.014	32.4394	-160.3599	-43.5152	533.0532	23.5474	302.8114	-23.7398	106.1373	14.7865	292.4457	-0.0592	0.0182	-0.0073	-0.0462	0.0165	0.9585
31.9966	-22.43	510.4194	36.7863	-172.545	-48.6473	573.6929	22.5344	267.0665	-20.1956	93.6009	11.7533	257.724	-0.0592	0.0182	-0.0073	-0.0462	0.0165	0.9585
32.0104	-23.6321	549.3222	41.7796	-185.0994	-54.3948	615.7811	20.4744	229.624	-16.8601	80.4539	9.2655	221.5169	-0.0592	0.0182	-0.0073	-0.0462	0.0165	0.9585
32.0243	-24.5523	589.2929	47.0748	-197.916	-60.3432	658.7782	17.4639	191.7438	-13.7749	67.1451	7.3396	185.0079	-0.0592	0.0182	-0.0073	-0.0462	0.0165	0.9585
32.0381	-25.1248	629.572	52.3786	-210.7754	-66.1399	701.7951	13.7884	155.023	-10.9702	54.2437	5.9138	149.6931	-0.0592	0.0182	-0.0073	-0.0462	0.0165	0.9585
32.052	-25.3536	668.9633	57.4722	-223.3016	-71.5409	743.507	9.8479	121.0086	-8.4755	42.3018	4.8816	117.0108	-0.0592	0.0182	-0.0073	-0.0462	0.0165	0.9585
32.0659	-25.2832	705.9121	62.1957	-234.9926	-76.388	782.2318	6.0508	90.9086	-6.3178	31.7456	4.125	88.0822	-0.0592	0.0182	-0.0073	-0.0462	0.0165	0.9585
32.0797	-24.96	738.8322	66.3953	-245.3338	-80.5397	816.2733	2.7225	65.4172	-4.5143	22.8169	3.5425	63.5655	-0.0592	0.0182	-0.0073	-0.0462	0.0165	0.9585
